# xmcd
#
# Track frame offsets:
#	150
#	15506
#	30059
#	40775
#	52887
#	65619
#	81504
#	94279
#	106969
#	124823
#
# Disc length: 1861 seconds
#
# Revision: 0
# Processed by: cddbd v1.5.1PL0 Copyright (c) Steve Scherf et al.
# Submitted via: audiograbber 1.83.01
#
DISCID=7507430a
DTITLE=Norman Lee - Caribbean Cowboy
DYEAR=1999
DGENRE=Country
TTITLE0=Backporch Paradise
TTITLE1=Margarita Senorita
TTITLE2=Redneck Shuffle
TTITLE3=Shaking The Ground I Walk On
TTITLE4=Caribbean Cowboy
TTITLE5=Angels Cry
TTITLE6=True Love Start
TTITLE7=Simple Matter Of Love
TTITLE8=Weekend In Miami
TTITLE9=Honky Tonk Heaven
EXTD=
EXTT0=
EXTT1=
EXTT2=
EXTT3=
EXTT4=
EXTT5=
EXTT6=
EXTT7=
EXTT8=
EXTT9=
PLAYORDER=
